<svg xmlns="http://www.w3.org/2000/svg" viewBox="0 0 28 28" class="v-icon"><path d="M21.428 16.291v4.584q0 1.704-1.226 2.915Q18.976 25 17.25 25H5.18q-1.727 0-2.953-1.21Q1 22.58 1 20.875V8.958q0-1.704 1.226-2.915 1.225-1.211 2.952-1.21h10.214q.204 0 .334.129.13.129.13.329v.917q0 .2-.13.329-.131.128-.334.129H5.178q-.957 0-1.64.673-.682.673-.68 1.619v11.917q0 .945.68 1.619.682.674 1.64.673H17.25q.958 0 1.64-.673.683-.673.682-1.62v-4.583q0-.2.13-.329.132-.128.334-.129h.929q.203 0 .333.13.13.128.13.328zm5.571-12.375v7.333q0 .373-.276.645-.275.272-.652.272t-.653-.272l-2.554-2.521-9.459 9.338q-.145.143-.333.143-.189 0-.333-.143l-1.654-1.632q-.145-.143-.145-.33 0-.185.145-.328l9.459-9.339-2.554-2.52q-.275-.273-.275-.645t.275-.645Q18.266 3 18.643 3h7.428q.377 0 .653.272.276.273.276.645z"/></svg>