<svg xmlns="http://www.w3.org/2000/svg" class="icon-lg icon-give v-icon" fill="currentcolor" viewBox="0 0 32 32" id="svg2"><path id="path6" d="M8.445 30.998s2.463-9.023 2.436-10.39c-.69-2.972-2.866-2.418-6.127-6.076-1.383-1.371-2.72-5.72-2.343-5.708.3-.992 1.863 3.23 1.869 1.179 0-.38.043-1.99.056-2.925.598-.906 1.058.58 1.222.803.318-.495.74.296.958.953 1.617.157.21 4.503 1.9 4.89-.094-.466-.173-2.633-.141-3.035.047-1.152 1.092-1.002 1.46 2.1.205 1.5 1.67 1.837 2.327 2.149 1 .476 2.107 1.952 2.472 3.586C14.898 20.15 14.316 31 14.316 31H8.445zm15.111 0s-2.463-9.023-2.435-10.39c.688-2.973 3.501-2.577 6.127-6.076 1.382-1.6 1.781-4.117 2.436-4.853.654-.737.09-.657.09-.657-.936.064-1.637 1.106-1.727 1.16-.352-.17-.192-2.813-.405-3.286-.368-.375-.792.012-1.075.985-.39-.507-.865.03-.951.953-.59-.368-.764 1.079-.732 1.582.004 1.129.176 2.737-.903 2.911.094-.466-.225-2.236-.257-2.638-.14-.7-.957-.806-1.009 2.313-.207 1.5-2.121 1.624-2.777 1.936-1 .476-2.108 1.952-2.473 3.586C17.1 20.15 17.683 31 17.683 31h5.872zM22.12 2.587c-.91.61-1.306 1.87-1.306 1.87.059-1.245.573-1.901.82-2.147l-1.72-.763c-.915.771-1.668 1.845-2.265 2.734a11.457 11.457 0 0 1 1.118-2.973A18.089 18.089 0 0 0 16.716 1c-1.08.723-1.706 1.827-2.292 2.844.079-1.203.667-2.355.93-2.815-.929.04-1.934.174-2.726.339-.58.712-1.1 1.6-1.524 2.241-.05-.712.164-1.397.318-1.786-1.368.415-3.64 1.468-3.819 3.903.006 1.495 3.275.432 9.832.777 3.192.148 7.31.614 6.95-.807-.266-1.386-1.302-2.432-2.266-3.11z"/></svg>