<svg xmlns="http://www.w3.org/2000/svg" class="icon-lg icon-give v-icon" fill="currentcolor" viewBox="0 0 32 32" id="svg2"><path d="M8.445 30.998s2.463-9.023 2.436-10.39a2.7 2.7 0 0 0-1.036-2.068c-2.891-1.618-3.71-2.408-5.091-4.008-1.383-1.6-1.783-4.117-2.438-4.853-.654-.737-.09-.657-.09-.657 1.01.114 1.522 1.36 2.054.98 0-.379-.013-1.671 0-2.606.008-.692.17-.817.409-.686.573 1.664.61 1.53.982 1.171.073-.105.343-.17.5.036.168.22.345.917.345.917.868-.023.632 1.08.6 1.582-.005 1.129.22 3.135 1.3 3.308-.094-.466-.173-2.633-.141-3.035.038-.468.323-.865.86-.38.465.422.408 1.096.6 2.48.205 1.5 1.67 1.837 2.327 2.149 1 .476 2.107 1.952 2.472 3.586C14.898 20.15 14.316 31 14.316 31H8.445zm15.111 0s-2.463-9.023-2.435-10.39c.027-1.366 1.036-2.068 1.036-2.068 2.89-1.618 3.71-2.408 5.09-4.008 1.383-1.6 1.782-4.117 2.437-4.853.654-.737.09-.657.09-.657-.936.064-1.637 1.106-1.727 1.16-.695-.066-.342.226-.327-2.786-.01-.692-.17-.817-.41-.686-.282.156-.62.86-.7 1.064-.067.172-.177.256-.281.107-.074-.105-.343-.17-.5.036-.168.22-.345.917-.345.917-.801.055-.632 1.079-.6 1.582.004 1.129-.22 3.135-1.3 3.308.094-.466.172-2.633.14-3.035-.037-.468-.323-.865-.859-.38-.466.422-.409 1.096-.6 2.48-.207 1.5-1.671 1.837-2.327 2.149-1 .476-2.108 1.952-2.473 3.586C17.1 20.15 17.683 31 17.683 31h5.872zM22.12 2.587c-.91.61-1.306 1.87-1.306 1.87.059-1.245.573-1.901.82-2.147l-1.72-.763c-.915.771-1.668 1.845-2.265 2.734a11.457 11.457 0 0 1 1.118-2.973A18.089 18.089 0 0 0 16.716 1c-1.08.723-1.706 1.827-2.292 2.844.079-1.203.667-2.355.93-2.815-.929.04-1.934.174-2.726.339-.58.712-1.1 1.6-1.524 2.241-.05-.712.164-1.397.318-1.786-1.368.415-3.64 1.468-3.819 3.903.026.44.078 1.616 2.137 1.792 2.06.177 5.946-.177 9.138-.03 3.192.148 5.558.03 5.507-1.792-.266-1.386-1.302-2.432-2.266-3.11z"/></svg>