<svg xmlns:rdf="http://www.w3.org/1999/02/22-rdf-syntax-ns#" xmlns="http://www.w3.org/2000/svg" version="1.1" xmlns:cc="http://creativecommons.org/ns#" xmlns:dc="http://purl.org/dc/elements/1.1/" viewBox="0 0 32 32">
<path style="fill:#df1818" d="m5.3359 0c-.6874.000015-1.3359.67729-1.3359 1.3945v29.21c0 .678.6875 1.396 1.3359 1.396h21.328c.648 0 1.336-.718 1.336-1.395v-21.605l-9-9h-13.664zm9.5251 6.5762l.309.0097c.511-.0222.836.3843 1.002.7676l.053.1367c.043.1252.057.1714.080.3321.162 1.1739-.450 4.6467-.450 4.6467-.029.129-.060.256-.097 0.4.282.773.649 1.51 1.082 2.182.432.671.930 1.276 1.472 1.783.404.377.918.691 1.417.978 1.113-.155 2.171-.234 3.05-.224 1.299.017 2.152.218 2.537.598.138.134.265.329.286.488.068.534.017 1.056-.235 1.435-.128.193-.339.335-.588.401-.161.042-.359.064-.590.064-.648 0-1.486-.164-2.371-.445s-1.818-.680-2.654-1.15c-2.193.327-4.694.923-6.893 1.638-.951 1.662-1.773 2.863-2.5054 3.649-.7323.786-1.3756 1.158-1.9707 1.158-.2220 0-.4387-.054-.6445-.156l-.4746-.239c-.2973-.169-.3396-.537-.2813-.824.0921-.449.4151-.956.9239-1.476.5087-.521 1.2032-1.054 2.039-1.553.1974-.119 1.0366-.564 1.0726-.582l.490-.260c.475-.812.997-1.771 1.574-2.9l.072-.139c.549-1.075 1.171-2.293 1.666-3.502l.178-.432c-.346-1.323-.616-2.497-.752-3.5094-.136-1.0127-.138-1.8639.047-2.5469.122-.4357.586-.7285 1.156-.7285z"/>
<path style="fill-opacity:0.196" d="m21 9 7 7v-7z"/>
<path style="fill:#fff;fill-opacity:0.392" d="m19 .000297 8.9916 8.9997h-7.6133c-.67295 0-1.3783-.71349-1.3783-1.3864z"/>
</svg>
