<?xml version="1.0" encoding="utf-8"?>
<!-- Generated by IcoMoon.io -->
<!DOCTYPE svg PUBLIC "-//W3C//DTD SVG 1.1//EN" "http://www.w3.org/Graphics/SVG/1.1/DTD/svg11.dtd">
<svg version="1.1" xmlns="http://www.w3.org/2000/svg" xmlns:xlink="http://www.w3.org/1999/xlink" width="36" height="48" viewBox="0 0 36 48">
<path fill="#484848" d="M27 3h-27v42h36v-33l-9-9zM3 6h11.991c-0.618 0.192-1.279 0.705-1.623 2.010-0.621 2.316-0.33 6.129 0.732 9.813-1.131 3.807-5.748 12.968-6.060 13.513-0.732 0.229-3.063 1.107-5.041 2.804v-28.14zM16.271 20.413c2.701 7.021 4.453 7.009 6.337 7.856-3.936 0.606-6.942 1.040-10.9 2.786-0.173 0.302 3.586-6.839 4.563-10.642zM33 42l-30-0.018c0.037 0.003 0.051 0.018 0.086 0.018 1.585 0 3.973-0.984 8.464-8.549 1.79-0.724 3.378-1.26 3.678-1.356 2.757-0.697 5.859-1.248 8.792-1.564 2.552 1.274 5.938 2.142 7.866 2.265 0.451 0.023 0.753-0.056 1.113-0.094v9.299zM33 27.439c-1.11-0.688-2.531-1.172-4.178-1.172-1.137 0-2.373 0.064-3.688 0.205-1.263-0.609-4.339-1.534-6.899-8.917 0.801-4.857 0.596-8.136 0.596-8.136 0.318-2.481-1.094-3.415-2.42-3.415 0 0-0.013-0.006-0.016-0.006h7.606l9 9v12.439z"></path>
</svg>
