<?xml version="1.0" encoding="UTF-8" standalone="no"?>
<svg
   xmlns:dc="http://purl.org/dc/elements/1.1/"
   xmlns:cc="http://creativecommons.org/ns#"
   xmlns:rdf="http://www.w3.org/1999/02/22-rdf-syntax-ns#"
   xmlns:svg="http://www.w3.org/2000/svg"
   xmlns="http://www.w3.org/2000/svg"
   xmlns:sodipodi="http://sodipodi.sourceforge.net/DTD/sodipodi-0.dtd"
   xmlns:inkscape="http://www.inkscape.org/namespaces/inkscape"
   version="1.1"
   viewBox="0 0 32 32"
   id="svg2"
   inkscape:version="0.91 r13725"
   sodipodi:docname="wps-office-xls.svg">
  <metadata
     id="metadata14">
    <rdf:RDF>
      <cc:Work
         rdf:about="">
        <dc:format>image/svg+xml</dc:format>
        <dc:type
           rdf:resource="http://purl.org/dc/dcmitype/StillImage" />
      </cc:Work>
    </rdf:RDF>
  </metadata>
  <defs
     id="defs12" />
  <sodipodi:namedview
     pagecolor="#ffffff"
     bordercolor="#666666"
     borderopacity="1"
     objecttolerance="10"
     gridtolerance="10"
     guidetolerance="10"
     inkscape:pageopacity="0"
     inkscape:pageshadow="2"
     inkscape:window-width="1920"
     inkscape:window-height="1007"
     id="namedview10"
     showgrid="false"
     inkscape:zoom="14.75"
     inkscape:cx="13.167139"
     inkscape:cy="15.582214"
     inkscape:window-x="0"
     inkscape:window-y="27"
     inkscape:window-maximized="1"
     inkscape:current-layer="svg2" />
  <path
     style="fill:#207145"
     d="M 5.3359,0 C 4.6485,1.5e-5 4,0.67729 4,1.3945 l 0,29.21 c 0,0.678 0.6875,1.396 1.3359,1.396 l 21.328,0 c 0.648,0 1.336,-0.718 1.336,-1.395 l 0,-21.605 -9,-9 -13.664,0 z m 3.6914,11.6719 4.0837,0 2.889,4.2581 2.891,-4.2581 4.082,0 -4.895,7.3181 5.524,8.137 -4.239,0 L 16,22.1 l -1.514,2.263 1.514,0 0,2.764 -7.6016,0 5.5236,-8.137 z"
     id="path4"
     inkscape:connector-curvature="0"
     sodipodi:nodetypes="csssssccccccccccccccccccc" />
  <path
     style="fill-opacity:0.196"
     d="m21 9 7 7v-7z"
     id="path6" />
  <path
     style="fill:#fff;fill-opacity:0.392"
     d="m19 .0002969 8.9916 8.9997h-7.6133c-.67295 0-1.3783-.71349-1.3783-1.3864z"
     id="path8" />
</svg>
