<?xml version="1.0" encoding="UTF-8" standalone="no"?>
<svg
   xmlns:dc="http://purl.org/dc/elements/1.1/"
   xmlns:cc="http://creativecommons.org/ns#"
   xmlns:rdf="http://www.w3.org/1999/02/22-rdf-syntax-ns#"
   xmlns:svg="http://www.w3.org/2000/svg"
   xmlns="http://www.w3.org/2000/svg"
   xmlns:sodipodi="http://sodipodi.sourceforge.net/DTD/sodipodi-0.dtd"
   xmlns:inkscape="http://www.inkscape.org/namespaces/inkscape"
   version="1.1"
   viewBox="0 0 32 32"
   id="svg2"
   inkscape:version="0.91 r13725"
   sodipodi:docname="wps-office-doc.svg">
  <metadata
     id="metadata14">
    <rdf:RDF>
      <cc:Work
         rdf:about="">
        <dc:format>image/svg+xml</dc:format>
        <dc:type
           rdf:resource="http://purl.org/dc/dcmitype/StillImage" />
      </cc:Work>
    </rdf:RDF>
  </metadata>
  <defs
     id="defs12" />
  <sodipodi:namedview
     pagecolor="#ffffff"
     bordercolor="#666666"
     borderopacity="1"
     objecttolerance="10"
     gridtolerance="10"
     guidetolerance="10"
     inkscape:pageopacity="0"
     inkscape:pageshadow="2"
     inkscape:window-width="1920"
     inkscape:window-height="1007"
     id="namedview10"
     showgrid="false"
     inkscape:zoom="14.75"
     inkscape:cx="14.852075"
     inkscape:cy="17.12674"
     inkscape:window-x="0"
     inkscape:window-y="27"
     inkscape:window-maximized="1"
     inkscape:current-layer="svg2" />
  <path
     style="fill:#3468ce"
     d="M 5.3359,0 C 4.6485,1.5e-5 4,0.67729 4,1.3945 l 0,29.21 c 0,0.678 0.6875,1.396 1.3359,1.396 l 21.328,0 c 0.648,0 1.336,-0.718 1.336,-1.395 l 0,-21.605 -9,-9 -13.664,0 z m 1.7969,11.5898 3.3122,0 1.719,9.4572 2.293,-9.4572 3.17,0 1.971,9.4572 1.517,-6.727 -1.314,0 -0.002,0 0,-2.7302 5.068,0 -3.853,15.221 -2.985,0 -2.029,-9 -2.268,9 -3.236,0 z"
     id="path4"
     inkscape:connector-curvature="0"
     sodipodi:nodetypes="csssssccccccccccccccccccccc" />
  <path
     style="fill-opacity:0.196"
     d="m21 9 7 7v-7z"
     id="path6" />
  <path
     style="fill:#fff;fill-opacity:0.392"
     d="m19 .000297 8.992 8.9997h-7.613c-.673 0-1.379-.7135-1.379-1.3864z"
     id="path8" />
</svg>
