<?xml version="1.0" encoding="UTF-8" standalone="no"?>
<svg
   xmlns:dc="http://purl.org/dc/elements/1.1/"
   xmlns:cc="http://creativecommons.org/ns#"
   xmlns:rdf="http://www.w3.org/1999/02/22-rdf-syntax-ns#"
   xmlns:svg="http://www.w3.org/2000/svg"
   xmlns="http://www.w3.org/2000/svg"
   xmlns:sodipodi="http://sodipodi.sourceforge.net/DTD/sodipodi-0.dtd"
   xmlns:inkscape="http://www.inkscape.org/namespaces/inkscape"
   class="icon-lg icon-give"
   fill="currentcolor"
   viewBox="0 0 32 32"
   id="svg2"
   version="1.1"
   inkscape:version="0.91 r13725"
   sodipodi:docname="give.svg"
   width="31.999998"
   height="32">
  <metadata
     id="metadata12">
    <rdf:RDF>
      <cc:Work
         rdf:about="">
        <dc:format>image/svg+xml</dc:format>
        <dc:type
           rdf:resource="http://purl.org/dc/dcmitype/StillImage" />
        <dc:title></dc:title>
      </cc:Work>
    </rdf:RDF>
  </metadata>
  <defs
     id="defs10" />
  <sodipodi:namedview
     pagecolor="#ffffff"
     bordercolor="#666666"
     borderopacity="1"
     objecttolerance="10"
     gridtolerance="10"
     guidetolerance="10"
     inkscape:pageopacity="0"
     inkscape:pageshadow="2"
     inkscape:window-width="1920"
     inkscape:window-height="1012"
     id="namedview8"
     showgrid="false"
     inkscape:zoom="13.350176"
     inkscape:cx="2.7198627"
     inkscape:cy="24.328751"
     inkscape:window-x="0"
     inkscape:window-y="32"
     inkscape:window-maximized="1"
     inkscape:current-layer="svg2"
     fit-margin-top="1"
     fit-margin-left="2"
     fit-margin-right="2"
     fit-margin-bottom="1" />
  <path d="m 8.4446528,30.997893 c 0,0 2.4632332,-9.02335 2.4363852,-10.390652 C 10.853339,19.242046 9.844604,18.540487 9.844604,18.540487 6.9535018,16.922479 6.1356917,16.131592 4.7536385,14.531701 3.3707341,12.932231 2.9709913,10.415047 2.3159761,9.6789381 1.6622388,8.9415644 2.2256296,9.0224648 2.2256296,9.0224648 3.2365281,9.1358277 3.7480063,10.381514 4.2797449,10.00254 c 0,-0.3792209 -0.012788,-1.671522 0,-2.6065114 C 4.2882549,6.7037392 4.4502106,6.5785971 4.6888628,6.7104808 5.2624739,8.3739351 5.2987708,8.2404651 5.6707466,7.88101 5.7440496,7.7756709 6.013809,7.7112033 6.1706376,7.916822 6.3385467,8.1371913 6.5158319,8.8341153 6.5158319,8.8341153 7.3837292,8.8114813 7.1481513,9.913066 7.1162977,10.415888 7.1109877,11.545021 7.33647,13.550585 8.4156742,13.72438 8.3219232,13.258359 8.2430775,11.090901 8.2750403,10.688505 c 0.038354,-0.467706 0.3230333,-0.864624 0.859148,-0.37922 0.4653726,0.421356 0.4091188,1.095526 0.6008924,2.480525 0.2054116,1.50003 1.6705663,1.835851 2.3268603,2.148076 0.999783,0.476133 2.106959,1.952566 2.471757,3.585744 0.363945,1.6277 -0.217344,12.476367 -0.217344,12.476367 l -5.8717002,0 z m 15.1118062,0 c 0,0 -2.463233,-9.02335 -2.435532,-10.390652 0.02685,-1.365195 1.035581,-2.066754 1.035581,-2.066754 2.891102,-1.618008 3.709765,-2.408895 5.091391,-4.008786 1.382053,-1.59947 1.781369,-4.116654 2.436385,-4.8527629 0.653737,-0.7373737 0.08949,-0.6564733 0.08949,-0.6564733 C 28.837916,9.0856631 28.1373,10.128105 28.046953,10.182037 27.351634,10.115691 27.705159,10.407809 27.719659,7.3960286 27.710259,6.7037392 27.549193,6.5785971 27.309689,6.7104808 27.02842,6.86554 26.689192,7.5708917 26.610778,7.773564 26.542598,7.9463202 26.433494,8.0297483 26.328657,7.88101 26.254937,7.7756709 25.985594,7.7112033 25.828765,7.916822 c -0.167908,0.2203693 -0.345193,0.9172933 -0.345193,0.9172933 -0.80095,0.055277 -0.631628,1.0786407 -0.600041,1.5817727 0.0044,1.128995 -0.220372,3.134653 -1.300228,3.308492 0.09461,-0.466021 0.172596,-2.633479 0.140634,-3.035875 -0.03707,-0.467706 -0.322607,-0.864624 -0.858722,-0.37922 -0.465798,0.421356 -0.409119,1.095526 -0.60004,2.480525 -0.207116,1.50003 -1.671419,1.835851 -2.32686,2.148076 -1.00021,0.476133 -2.108238,1.952566 -2.473035,3.585744 C 17.100482,20.151333 17.682623,31 17.682623,31 l 5.872552,0 z M 22.119431,2.5868291 c -0.910288,0.609281 -1.306195,1.8708225 -1.306195,1.8708225 0.05838,-1.2459513 0.573192,-1.9020028 0.820368,-2.1476545 L 19.91275,1.5473421 C 18.998422,2.3184734 18.245155,3.3922328 17.647684,4.2811033 17.980092,2.7376744 18.660251,1.4946726 18.76594,1.3075905 18.061886,1.1518977 17.378425,1.069336 16.716087,1 15.635185,1.7230509 15.01031,2.827452 14.424173,3.8441567 14.503013,2.640762 15.090694,1.4887735 15.353212,1.0286526 14.425033,1.0697815 13.419619,1.2026316 12.628313,1.3678443 12.048809,2.0795862 11.52743,2.9672665 11.104348,3.6094606 11.053207,2.8973682 11.267995,2.2122432 11.421841,1.8229097 10.053851,2.2379453 7.7823924,3.2913373 7.6034038,5.7259347 7.6289696,6.1662526 7.6809624,7.342259 9.7397682,7.5183856 11.799423,7.6953557 15.686472,7.3414154 18.878021,7.4888904 22.069996,7.6363653 24.436489,7.5183856 24.384924,5.6960187 24.118662,4.3096579 23.083248,3.2642986 22.119431,2.5868291 Z"
     inkscape:connector-curvature="0" />
</svg>
