<?xml version="1.0" encoding="utf-8"?>
<!-- Generated by IcoMoon.io -->
<!DOCTYPE svg PUBLIC "-//W3C//DTD SVG 1.1//EN" "http://www.w3.org/Graphics/SVG/1.1/DTD/svg11.dtd">
<svg version="1.1" xmlns="http://www.w3.org/2000/svg" xmlns:xlink="http://www.w3.org/1999/xlink" width="32" height="32" viewBox="0 0 32 32">
<path fill="#444" d="M8.445 30.998c0 0 2.463-9.023 2.436-10.391-0.69-2.971-2.866-2.417-6.127-6.076-1.382-1.371-2.719-5.72-2.343-5.708 0.299-0.992 1.863 3.23 1.869 1.179 0-0.379 0.043-1.99 0.056-2.925 0.598-0.906 1.058 0.58 1.222 0.803 0.317-0.495 0.739 0.296 0.957 0.953 1.617 0.157 0.211 4.503 1.9 4.89-0.094-0.466-0.173-2.633-0.141-3.036 0.047-1.151 1.091-1.002 1.46 2.101 0.205 1.5 1.671 1.836 2.327 2.148 1 0.476 2.107 1.953 2.472 3.586 0.364 1.628-0.217 12.476-0.217 12.476h-5.872zM23.556 30.998c0 0-2.463-9.023-2.436-10.391 0.688-2.972 3.502-2.576 6.127-6.076 1.382-1.599 1.781-4.117 2.436-4.853 0.654-0.737 0.090-0.656 0.090-0.656-0.936 0.063-1.636 1.106-1.727 1.16-0.352-0.17-0.192-2.813-0.405-3.286-0.368-0.375-0.792 0.013-1.075 0.985-0.39-0.507-0.865 0.031-0.951 0.953-0.589-0.368-0.764 1.079-0.732 1.582 0.004 1.129 0.177 2.737-0.903 2.911 0.095-0.466-0.225-2.236-0.257-2.639-0.139-0.7-0.957-0.806-1.009 2.313-0.207 1.5-2.122 1.624-2.777 1.936-1 0.476-2.108 1.953-2.473 3.586-0.365 1.628 0.217 12.476 0.217 12.476h5.873zM22.119 2.587c-0.91 0.609-1.306 1.871-1.306 1.871 0.058-1.246 0.573-1.902 0.82-2.148l-1.721-0.763c-0.914 0.771-1.668 1.845-2.265 2.734 0.332-1.543 1.013-2.786 1.118-2.974-0.704-0.156-1.387-0.238-2.050-0.308-1.081 0.723-1.706 1.827-2.292 2.844 0.079-1.203 0.667-2.355 0.929-2.816-0.928 0.041-1.934 0.174-2.725 0.339-0.579 0.712-1.101 1.599-1.524 2.242-0.051-0.712 0.164-1.397 0.318-1.787-1.368 0.415-3.639 1.468-3.818 3.903 0.006 1.495 3.274 0.432 9.831 0.777 3.192 0.147 7.311 0.614 6.95-0.807-0.266-1.386-1.302-2.432-2.265-3.109z"></path>
</svg>
