<?xml version="1.0" encoding="UTF-8" standalone="no"?>
<svg
   xmlns:dc="http://purl.org/dc/elements/1.1/"
   xmlns:cc="http://creativecommons.org/ns#"
   xmlns:rdf="http://www.w3.org/1999/02/22-rdf-syntax-ns#"
   xmlns:svg="http://www.w3.org/2000/svg"
   xmlns="http://www.w3.org/2000/svg"
   xmlns:sodipodi="http://sodipodi.sourceforge.net/DTD/sodipodi-0.dtd"
   xmlns:inkscape="http://www.inkscape.org/namespaces/inkscape"
   height="12"
   width="32"
   viewBox="0 0 32 12"
   id="svg2"
   version="1.1"
   inkscape:version="0.91 r13725"
   sodipodi:docname="MACS-icon3.svg">
  <metadata
     id="metadata10">
    <rdf:RDF>
      <cc:Work
         rdf:about="">
        <dc:format>image/svg+xml</dc:format>
        <dc:type
           rdf:resource="http://purl.org/dc/dcmitype/StillImage" />
        <dc:title></dc:title>
      </cc:Work>
    </rdf:RDF>
  </metadata>
  <defs
     id="defs8" />
  <sodipodi:namedview
     pagecolor="#ffffff"
     bordercolor="#666666"
     borderopacity="1"
     objecttolerance="10"
     gridtolerance="10"
     guidetolerance="10"
     inkscape:pageopacity="0"
     inkscape:pageshadow="2"
     inkscape:window-width="1920"
     inkscape:window-height="1012"
     id="namedview6"
     showgrid="false"
     inkscape:zoom="20.85965"
     inkscape:cx="11.92771"
     inkscape:cy="5.3046328"
     inkscape:window-x="0"
     inkscape:window-y="32"
     inkscape:window-maximized="1"
     inkscape:current-layer="svg2"
     fit-margin-top="1"
     fit-margin-left="1"
     fit-margin-bottom="1"
     fit-margin-right="1" />
  <path
     d="m 21.03819,9.004992 c 0.306697,0 0.555451,-0.249625 0.555451,-0.556166 l 0,-2.735895 1.094917,0 c 0.306697,0 0.555451,-0.249626 0.555451,-0.559161 0,-0.309536 -0.249753,-0.559161 -0.555451,-0.559161 l -1.094917,0 0,-1.098353 c 0,-0.309536 -0.249753,-0.559162 -0.555451,-0.559162 -0.307696,0 -0.55645,0.249626 -0.55645,0.549177 l 0,1.098353 -1.028983,0 c -0.299703,0 -0.549456,0.249625 -0.549456,0.552171 0,0.309535 0.249753,0.559161 0.559446,0.559161 l 1.028983,0 0,2.735896 c 0,0.304543 0.249753,0.55317 0.559447,0.55317 M 30.891449,7.203695 C 30.571765,5.772841 29.153167,5.08687 27.741563,4.697454 26.315972,4.301048 25.503775,4.058412 25.229047,3.309536 24.936336,2.181229 26.246041,1.488268 27.54176,1.981528 c 1.298716,0.489266 2.273753,2.093859 2.273753,2.093859 L 30.484851,3.875687 29.565759,1 c 0,0 -0.269733,0.349476 -0.784224,0.475287 C 28.269041,1.6001 27.756548,1.15976 26.355933,1.175736 c -1.398618,0.01398 -2.837195,1.136296 -2.700331,2.881678 0.13187,1.744384 1.938084,2.66001 3.363675,2.955567 1.428588,0.294557 2.337689,0.778831 2.317709,1.671492 -0.04995,0.944583 -1.308707,1.830255 -2.777255,1.238143 C 24.431835,9.053919 24.311953,7.941588 24.311953,7.941588 l -0.939071,0 c 0,0 -0.619388,1.373939 -1.888134,1.557663 -1.258755,0.184723 -3.29674,-0.768846 -3.436602,-3.84623 -0.142859,-3.079381 1.048963,-3.982027 2.477551,-3.648527 1.438577,0.342486 2.237787,2.214677 2.237787,2.214677 L 23.438817,4.01348 22.539706,1.093859 c 0,0 -0.469536,0.529207 -0.889121,0.586122 -0.419586,0.05991 -1.190823,-0.629057 -2.700331,-0.249626 -1.498518,0.37943 -2.549479,2.20669 -2.549479,2.20669 0,0 1.538479,4.71293 1.815205,5.611582 0.279723,0.898652 1.273741,0.928607 1.273741,0.928607 l 0,0.569147 c 0,0 0.614392,0.09286 1.902119,-0.162756 1.288726,-0.255617 2.187837,-1.670495 2.187837,-1.670495 L 24.305959,11 c 0,0 0.819191,-0.462307 1.16385,-0.462307 0.344659,0 1.898123,0.688967 3.403635,0.23365 1.498518,-0.451323 2.377649,-1.952072 2.06296,-3.38692 M 15.431733,6.905142 14.093056,2.951073 c 0,0 -0.899111,2.301548 -1.558459,3.94708 z m 0.179822,0.544184 -3.276761,0 c -0.149852,0.379431 -0.279723,0.695956 -0.369634,0.888667 -0.442563,1.018473 0.03996,1.723415 0.699308,1.697454 l -0.02997,0.659011 2.577452,0 0,-0.619071 c 0,0 1.298716,0.101847 1.002009,-0.828757 -0.08991,-0.283574 -0.315688,-0.972541 -0.589417,-1.795307 m 0.07992,-5.841238 -3.016018,0 0,0.549177 c -1.262752,0.06989 -1.438578,0.47928 -1.438578,1.252121 l -0.002,5.147279 2.577452,-6.310534 z m -6.8132644,0.005 -4.1948529,0 2.0509724,5.554668 z m -0.9180923,9.071392 -0.02997,-0.602096 c 0,0 1.208805,0.03994 1.208805,-0.918623 l 0,-6.467299 -2.9171161,7.978033 z M 2.9580642,8.779332 c 0,0.774837 0.2327699,1.224163 1.1518613,1.288066 l 0,0.636047 1.7382815,0 L 2.9590632,2.995008 Z M 1,2.139291 1,10.031453 C 1.8991111,9.961563 2.2387753,9.484273 2.2387753,8.583625 l 0,-5.605592 C 2.2387753,1.982526 1,2.129306 1,2.129306"
     id="path4"
     inkscape:connector-curvature="0"
     style="fill:#000000;fill-opacity:1;stroke:none" />
</svg>
