<?xml version="1.0" encoding="UTF-8" standalone="no"?>
<svg
   xmlns:dc="http://purl.org/dc/elements/1.1/"
   xmlns:cc="http://creativecommons.org/ns#"
   xmlns:rdf="http://www.w3.org/1999/02/22-rdf-syntax-ns#"
   xmlns:svg="http://www.w3.org/2000/svg"
   xmlns="http://www.w3.org/2000/svg"
   xmlns:sodipodi="http://sodipodi.sourceforge.net/DTD/sodipodi-0.dtd"
   xmlns:inkscape="http://www.inkscape.org/namespaces/inkscape"
   class="icon-lg icon-newspaper"
   version="1"
   fill="currentcolor"
   viewBox="0 0 32 32"
   id="svg2"
   inkscape:version="0.91 r13725"
   sodipodi:docname="newspaper.svg">
  <metadata
     id="metadata9">
    <rdf:RDF>
      <cc:Work
         rdf:about="">
        <dc:format>image/svg+xml</dc:format>
        <dc:type
           rdf:resource="http://purl.org/dc/dcmitype/StillImage" />
      </cc:Work>
    </rdf:RDF>
  </metadata>
  <defs
     id="defs7" />
  <sodipodi:namedview
     pagecolor="#ffffff"
     bordercolor="#666666"
     borderopacity="1"
     objecttolerance="10"
     gridtolerance="10"
     guidetolerance="10"
     inkscape:pageopacity="0"
     inkscape:pageshadow="2"
     inkscape:window-width="1920"
     inkscape:window-height="1012"
     id="namedview5"
     showgrid="false"
     inkscape:zoom="10.429825"
     inkscape:cx="14.504179"
     inkscape:cy="20.592586"
     inkscape:window-x="0"
     inkscape:window-y="32"
     inkscape:window-maximized="1"
     inkscape:current-layer="icon-news" />
  <g
     id="icon-news">
    <path
       sodipodi:nodetypes="csccccccccc"
       inkscape:connector-curvature="0"
       id="news-front"
       d="m 0,4 0,22 c 0,1.105 0.895,2 2,2 l 26,0 0,-24 z m 2,2 24,0 0,20 -24,0 z"
       class="news-front" />
    <path
       d="m 4,14 10,0 0,10 -10,0 z m 12,8 6,0 0,2 -6,0 z m 0,-4 8,0 0,2 -8,0 z m 0,-4 8,0 0,2 -8,0 z m -12,-4 20,0 0,2 -20,0 z"
       id="news-text"
       inkscape:connector-curvature="0"
       class="news-text" />
    <path
       sodipodi:nodetypes="ccccc"
       d="M 28,7.9918891 28,27.99189 c 3.681082,0.132549 3.950395,-1.380583 3.999607,-3 l 0,-17.0000009 z"
       id="news-back"
       inkscape:connector-curvature="0"
       class="news-back" />
  </g>
</svg>
