<?xml version="1.0" encoding="UTF-8" standalone="no"?>
<svg
   xmlns:dc="http://purl.org/dc/elements/1.1/"
   xmlns:cc="http://creativecommons.org/ns#"
   xmlns:rdf="http://www.w3.org/1999/02/22-rdf-syntax-ns#"
   xmlns:svg="http://www.w3.org/2000/svg"
   xmlns="http://www.w3.org/2000/svg"
   xmlns:sodipodi="http://sodipodi.sourceforge.net/DTD/sodipodi-0.dtd"
   xmlns:inkscape="http://www.inkscape.org/namespaces/inkscape"
   fill="currentcolor"
   viewBox="0 0 32 32"
   class="shield-icon"
   id="svg2"
   version="1.1"
   inkscape:version="0.91 r13725"
   sodipodi:docname="shield.svg"
   width="32"
   height="32">
  <metadata
     id="metadata10">
    <rdf:RDF>
      <cc:Work
         rdf:about="">
        <dc:format>image/svg+xml</dc:format>
        <dc:type
           rdf:resource="http://purl.org/dc/dcmitype/StillImage" />
        <dc:title />
      </cc:Work>
    </rdf:RDF>
  </metadata>
  <defs
     id="defs8" />
  <sodipodi:namedview
     pagecolor="#ffffff"
     bordercolor="#666666"
     borderopacity="1"
     objecttolerance="10"
     gridtolerance="10"
     guidetolerance="10"
     inkscape:pageopacity="0"
     inkscape:pageshadow="2"
     inkscape:window-width="1920"
     inkscape:window-height="1044"
     id="namedview6"
     showgrid="false"
     fit-margin-top="0.5"
     fit-margin-bottom="0.5"
     fit-margin-left="3"
     fit-margin-right="3"
     inkscape:zoom="32"
     inkscape:cx="14.293742"
     inkscape:cy="19.046793"
     inkscape:window-x="1920"
     inkscape:window-y="0"
     inkscape:window-maximized="1"
     inkscape:current-layer="svg2" />
  <path
     d="m 14,3.8275959 0.88,4.189223 c 1.541559,0.177945 -0.166727,1.9876561 -0.479999,0.47769 l -4.000002,-0.79825 0,3.9905421 4.000002,-0.798954 c 0.282537,-1.4238291 1.84211,0.225101 0.519998,0.47909 l -0.999998,5.785722 3.999999,0 -1,-5.785722 c -1.336083,-0.390076 0.322289,-1.8149401 0.52,-0.478385 l 4.000001,0.798249 0,-3.9912461 L 17.44,8.4938039 c -0.475791,1.5435711 -1.991921,-0.495644 -0.48,-0.498818 l 0.8,-4.189927 z"
     id="shield-cross"
     inkscape:connector-curvature="0"
     class="shield-cross" />
  <path
     d="M 3,1.5722656 3,15.539062 c 0,0 0.819999,11.571624 13,15.960938 C 28.199999,27.110686 29,15.539062 29,15.539062 L 29,1.5722656 c -8.884411,-1.40457058 -17.970967,-1.26527271 -26,0 z M 27,3.4277344 27,15.398438 C 25.770582,22.686224 22.478982,26.532984 16,29.564453 10.162775,26.485927 6.7931802,23.544492 5,15.597656 L 5,3.6289062 C 12.439671,2.1218897 19.99307,2.2521329 27,3.4277344 Z"
     id="shield-shield"
     inkscape:connector-curvature="0"
     sodipodi:nodetypes="cccccccccccc"
     class="shield-shield" />
  <path
     d="M 16.093751,17.923565 C 15.843171,18.602826 14.84,18.790013 15.18,20.187829 c -1.280255,-0.02922 -1.033535,2.079432 0.400719,1.628908 -0.0093,0.95818 -0.84,1.716976 -1.84,0.239545 1.071858,-1.997321 -2.438023,-1.743444 -1.019285,0.102864 -1.35638,1.918615 -1.293486,-0.192406 -1.405133,-0.919433 -0.983864,0.748656 -1.654852,-0.763106 -2.396296,-0.705952 0.5,0.65875 1.519285,1.65568 3,5.187563 l 8.4,0 c 1.378572,-3.591064 2.400001,-4.5887 3,-5.187563 -1.202362,0.02941 -1.224871,1.401153 -2.48587,0.527301 0.226737,1.281856 -0.488636,2.755801 -1.315558,1.097379 1.446119,-1.748873 -2.083329,-2.163226 -1.020715,-0.100045 -0.939286,1.416134 -1.839285,0.718635 -1.839285,-0.239545 1.444144,0.394138 1.511016,-1.608183 0.402153,-1.629612 0.32472,-1.264615 -0.715091,-1.588255 -0.966979,-2.265674 z"
     id="shield-crown"
     class="shield-crown"
     inkscape:connector-curvature="0" />
</svg>
