<?xml version="1.0" encoding="utf-8"?>
<!-- Generated by IcoMoon.io -->
<!DOCTYPE svg PUBLIC "-//W3C//DTD SVG 1.1//EN" "http://www.w3.org/Graphics/SVG/1.1/DTD/svg11.dtd">
<svg version="1.1" xmlns="http://www.w3.org/2000/svg" xmlns:xlink="http://www.w3.org/1999/xlink" width="32" height="32" viewBox="0 0 32 32">
<path fill="#444" d="M14 3.828l0.88 4.189c1.542 0.178-0.167 1.988-0.48 0.478l-4-0.798v3.991l4-0.799c0.283-1.424 1.842 0.225 0.52 0.479l-1 5.786h4l-1-5.786c-1.336-0.39 0.322-1.815 0.52-0.478l4 0.798v-3.991l-4 0.798c-0.476 1.544-1.992-0.496-0.48-0.499l0.8-4.19z"></path>
<path fill="#444" d="M3 1.572v13.967c0 0 0.82 11.572 13 15.961 12.2-4.389 13-15.961 13-15.961v-13.967c-8.884-1.405-17.971-1.265-26 0zM27 3.428v11.971c-1.229 7.288-4.521 11.135-11 14.166-5.837-3.079-9.207-6.020-11-13.967v-11.969c7.44-1.507 14.993-1.377 22-0.201z"></path>
<path fill="#444" d="M16.094 17.924c-0.251 0.679-1.254 0.866-0.914 2.264-1.28-0.029-1.034 2.079 0.401 1.629-0.009 0.958-0.84 1.717-1.84 0.24 1.072-1.997-2.438-1.743-1.019 0.103-1.356 1.919-1.293-0.192-1.405-0.919-0.984 0.749-1.655-0.763-2.396-0.706 0.5 0.659 1.519 1.656 3 5.188h8.4c1.379-3.591 2.4-4.589 3-5.188-1.202 0.029-1.225 1.401-2.486 0.527 0.227 1.282-0.489 2.756-1.316 1.097 1.446-1.749-2.083-2.163-1.021-0.1-0.939 1.416-1.839 0.719-1.839-0.24 1.444 0.394 1.511-1.608 0.402-1.63 0.325-1.265-0.715-1.588-0.967-2.266z"></path>
</svg>
