<svg xmlns="http://www.w3.org/2000/svg" viewBox="0 0 32 32" class="v-icon"><path d="M5.336 0C4.648 0 4 .677 4 1.395v29.21C4 31.283 4.687 32 5.336 32h21.328c.648 0 1.336-.717 1.336-1.394V9l-9-9H5.336zm9.525 6.576l.31.01c.51-.022.836.384 1.002.767l.053.137a1.4 1.4 0 0 1 .08.332c.162 1.174-.45 4.647-.45 4.647-.03.128-.06.255-.097.4.282.772.65 1.51 1.082 2.18a9.45 9.45 0 0 0 1.472 1.784c.404.377.918.69 1.417.978 1.112-.155 2.17-.234 3.05-.224 1.298.017 2.15.218 2.536.598.138.134.265.33.286.488.068.534.017 1.056-.235 1.435-.128.192-.34.334-.588.4-.162.042-.36.064-.59.064-.65 0-1.487-.164-2.372-.445s-1.818-.68-2.654-1.15a44.554 44.554 0 0 0-6.893 1.637c-.95 1.662-1.772 2.863-2.504 3.65-.733.785-1.376 1.157-1.97 1.157-.223 0-.44-.054-.646-.156l-.474-.24c-.297-.168-.34-.536-.28-.823.09-.45.414-.956.922-1.476.51-.522 1.204-1.055 2.04-1.554.197-.12 1.036-.564 1.072-.582l.49-.26a58.63 58.63 0 0 0 1.574-2.9l.072-.14c.55-1.074 1.17-2.292 1.666-3.5l.178-.433c-.346-1.322-.616-2.496-.752-3.508-.136-1.013-.138-1.864.047-2.547.122-.436.586-.73 1.156-.73z" fill="#df1818"/><path d="M21 9l7 7V9z" fill-opacity=".2"/><path d="M19 0l8.992 9h-7.614C19.705 9 19 8.287 19 7.614z" fill="#fff" fill-opacity=".39"/></svg>