<?xml version="1.0" encoding="utf-8"?>
<!-- Generated by IcoMoon.io -->
<!DOCTYPE svg PUBLIC "-//W3C//DTD SVG 1.1//EN" "http://www.w3.org/Graphics/SVG/1.1/DTD/svg11.dtd">
<svg version="1.1" xmlns="http://www.w3.org/2000/svg" xmlns:xlink="http://www.w3.org/1999/xlink" width="64" height="64" viewBox="0 0 64 64">
<path fill="#444" d="M32 12c0 0-8-8-32-8v48c24.25 0 32 8 32 8s7.75-8 32-8v-48c-24 0-32 8-32 8zM8 12c10.168 0.852 16.406 3.204 20 5.11v32.218c-3.594-1.898-9.832-4.25-20-5.11v-32.218zM56 44.218c-10.172 0.86-16.406 3.208-20 5.11v-32.218c3.594-1.906 9.828-4.258 20-5.11v32.218z"></path>
</svg>
