<svg xmlns="http://www.w3.org/2000/svg" fill="currentcolor" class="tile-icon v-icon" viewBox="0 0 76.224082 98.94078"><g transform="translate(14.836 42.405) scale(.5094)"><path d="M45.1 24.1s-5.4 5.2-3.6 13.3c0 0-3.4-.4-4.6 2.3-.8 1.9-.2 4.2 1.6 5.4.9.6 2.2.9 4 .4 0 0-1.4 12.4-15.6 3.2 0 0 2.7-3.8.2-6.2-2.2-2.1-4.1-.3-4.8 1.7-.5 1.5-.3 3.4 2.7 5 0 0-1.4 15.5-12.4 2.8 0 0 .7-.7 1.2-1.7 1.4-2.9-2.5-5.5-4.6-3 0 0 0 .1-.1.1 0 0-2.5-2.9-5.2-2.6-.7.1-1 .9-.6 1.4 3 3.4 4.9 8.526 13.1 26.526h28.7"/><circle cx="24.9" cy="45.5" r="3.8"/><circle cx="40.8" cy="41.5" r="4.5"/><path d="M10.5 46c-1.8 0-3.2 1.2-3.7 2.8.5 0 1.1.2 1.4.5.3.3.5.6.8.9.1.1.2.3.3.4v.1c.1.1.1.1 0 0l.1.1c.1.1.2.2.3.2.3.2.7.5.9.8.4.5.6 1.2.4 1.8 1.8-.3 3.2-1.9 3.2-3.8.1-2.1-1.6-3.8-3.7-3.8zm34.4-21.9s5.4 5.2 3.6 13.3c0 0 3.4-.4 4.6 2.3.8 1.9.2 4.2-1.6 5.4-.9.6-2.2.9-4 .4 0 0 1.4 12.4 15.6 3.2 0 0-2.7-3.8-.2-6.2 2.2-2.1 4.1-.3 4.8 1.7.5 1.5.3 3.4-2.7 5 0 0 1.4 15.5 12.4 2.8 0 0-.7-.7-1.2-1.7-1.4-2.9 2.5-5.5 4.6-3 0 0 0 .1.1.1 0 0 2.5-2.9 5.2-2.6.7.1 1 .9.6 1.4-3 3.4-4.9 8.526-13.1 26.526H44.9"/><circle cx="65.1" cy="45.5" r="3.8"/><circle cx="49.2" cy="41.5" r="4.5"/><path d="M79.5 46c1.8 0 3.2 1.2 3.7 2.8-.5 0-1.1.2-1.4.5-.3.3-.5.6-.8.9-.1.1-.2.3-.3.4v.1c-.1.1-.1.1 0 0l-.1.1c-.1.1-.2.1-.3.2-.3.2-.7.5-.9.8-.4.5-.6 1.2-.4 1.8-1.8-.3-3.2-1.9-3.2-3.8-.1-2.1 1.6-3.8 3.7-3.8z"/></g><path d="M38.11 2C20.056 2 2 5.16 2 5.16v47.058S4.257 84.496 38.11 96.94c33.86-12.443 36.115-44.72 36.115-44.72V5.16S56.165 2 38.11 2zm0 5.64c15.416 0 30.837 2.784 30.837 2.784v41.468S67.02 80.335 38.11 91.302C9.205 80.334 7.278 51.89 7.278 51.89V10.424S22.694 7.64 38.11 7.64z"/><path d="M43.75 29.126l9.292 1.858V20.796l-9.604 1.92a6.686 6.686 0 0 0-2.53-2.373l1.947-9.735H32.667l1.947 9.735a6.673 6.673 0 0 0-2.53 2.374l-9.605-1.92v10.187l9.29-1.858a6.677 6.677 0 0 0 2.92 2.988l-2.024 16.15h10.188l-2.022-16.15a6.675 6.675 0 0 0 2.917-2.99z"/></svg>