<svg xmlns="http://www.w3.org/2000/svg" viewBox="0 0 48 48" fill="currentcolor" class="tile-icon marked-book"><path d="M34.28 13.037c0-.384-.298-.768-.672-.864l-20.16-5.76c0-.48-.48-.48 0-.96l1.776-1.344c.302-.23.864-.333 1.2-.228l19.68 5.76c.365.106.672.528.672.864v31.2s-.235.207-.528.456L34.472 43.7c-.288.25-.528.143-.528-.24V12.74z"/><path d="M40.04 7.277L15.56.077 15.08 0c-.283.125-.768.413-1.056.624l-6.24 5.28h-.48v34.032c0 .384.302.768.672.864l24 7.2c.365.106.672-.12.672-.48V14.4c0-.384-.302-.768-.672-.864l-1.536-.45v11.04l-3.552-5.28-2.976 3.023V10.83L9.992 6.796c-.192 0-.24-.48.096-.48l5.28-4.032c.302-.23.864-.33 1.2-.226l22.08 6.24c.365.105.672.527.672.863v33.12c0 .385.312.673.672.673h.408c.384 0 .672-.312.672-.672V7.724c0-.408-.27-.768-.672-.864z"/><path d="M29 12.077l-3.84-.96v7.68l1.92-1.92 1.92 2.88"/></svg>
