<svg xmlns="http://www.w3.org/2000/svg" viewBox="0 0 48 48" class="v-icon"><path fill="#484848" d="M34.83 18h-6.343L24 24.61 19.512 18H13.17l7.6 11.365L12.195 42H24v-4.293h-2.352l2.35-3.515L29.222 42h6.584l-8.577-12.635L34.827 18z"/><path fill="#484848" d="M43.022 10.738c-1.04-1.42-2.493-3.08-4.086-4.674s-3.254-3.045-4.674-4.086C31.844.205 30.672 0 30 0H6.75A3.754 3.754 0 0 0 3 3.75v40.5A3.754 3.754 0 0 0 6.75 48h34.5A3.754 3.754 0 0 0 45 44.25V15c0-.672-.205-1.845-1.978-4.262zm-6.208-2.552c1.44 1.44 2.57 2.737 3.402 3.814H33V4.784c1.076.833 2.375 1.963 3.813 3.402zM42 44.25a.76.76 0 0 1-.75.75H6.75a.76.76 0 0 1-.75-.75V3.75A.76.76 0 0 1 6.75 3H30v10.5c0 .828.67 1.5 1.5 1.5H42v29.25z"/></svg>