<svg xmlns="http://www.w3.org/2000/svg" viewBox="0 0 48 48" class="v-icon"><path fill="#484848" d="M39.469 27.632c-.64-.63-2.058-.964-4.217-.992-1.461-.016-3.22.113-5.07.372-.828-.478-1.682-.998-2.353-1.625-1.803-1.684-3.308-4.021-4.246-6.59.061-.24.113-.451.162-.666 0 0 1.016-5.768.747-7.719a2.256 2.256 0 0 0-.132-.553l-.088-.227c-.276-.637-.818-1.312-1.667-1.275l-.512-.016c-.947 0-1.719.484-1.921 1.208-.616 2.27.02 5.667 1.171 10.066l-.295.717c-.824 2.01-1.858 4.034-2.769 5.82l-.119.232a97.656 97.656 0 0 1-2.618 4.82l-.814.431c-.059.031-1.455.77-1.783.968-2.778 1.658-4.618 3.541-4.924 5.035-.097.477-.025 1.087.469 1.369l.788.396c.342.171.702.258 1.071.258 1.978 0 4.275-2.464 7.439-7.986 3.653-1.189 7.812-2.178 11.457-2.723 2.778 1.564 6.194 2.651 8.35 2.651.383 0 .713-.037.981-.108.414-.11.762-.345.975-.665.418-.63.503-1.497.39-2.385-.034-.264-.244-.589-.472-.812zM9.921 38.159c.361-.986 1.789-2.936 3.9-4.667.133-.108.46-.414.759-.699-2.208 3.521-3.687 4.925-4.659 5.365zM22.427 9.36c.636 0 .998 1.603 1.028 3.106s-.321 2.558-.757 3.338c-.361-1.155-.536-2.977-.536-4.167 0 0-.027-2.276.265-2.276zm-3.731 20.523c.443-.793.904-1.629 1.375-2.516a47.947 47.947 0 0 0 2.413-5.266c1.074 1.954 2.411 3.615 3.984 4.946.196.166.404.333.622.499-3.197.633-5.961 1.402-8.394 2.337zm20.159-.181c-.195.122-.752.192-1.111.192-1.158 0-2.591-.529-4.6-1.391a28.978 28.978 0 0 1 2.114-.086c1.162 0 1.506-.005 2.641.285s1.15.878.955 1z"/><path fill="#484848" d="M43.022 10.738c-1.041-1.42-2.493-3.08-4.086-4.674s-3.254-3.045-4.674-4.086C31.844.205 30.672 0 30 0H6.75A3.754 3.754 0 0 0 3 3.75v40.5A3.754 3.754 0 0 0 6.75 48h34.5A3.754 3.754 0 0 0 45 44.25V15c0-.672-.205-1.845-1.978-4.262zm-6.208-2.552c1.439 1.439 2.569 2.737 3.402 3.814h-7.217V4.784c1.077.833 2.376 1.963 3.814 3.402zM42 44.25a.76.76 0 0 1-.75.75H6.75a.76.76 0 0 1-.75-.75V3.75A.76.76 0 0 1 6.75 3H30v10.5a1.5 1.5 0 0 0 1.5 1.5H42v29.25z"/></svg>