<svg xmlns="http://www.w3.org/2000/svg" viewBox="0 0 48 48" class="v-icon"><path fill="#484848" d="M39.47 27.632c-.64-.63-2.06-.964-4.218-.992-1.46-.016-3.22.113-5.07.372-.828-.478-1.682-.998-2.353-1.625-1.804-1.684-3.31-4.02-4.247-6.59.06-.24.113-.45.162-.666 0 0 1.016-5.767.747-7.718a2.256 2.256 0 0 0-.132-.553l-.088-.228c-.276-.637-.818-1.312-1.667-1.275l-.512-.016c-.947 0-1.72.485-1.92 1.21-.617 2.27.02 5.666 1.17 10.065l-.295.717c-.824 2.01-1.858 4.034-2.77 5.82l-.118.232a97.656 97.656 0 0 1-2.618 4.82l-.814.43c-.06.032-1.455.77-1.783.97-2.778 1.657-4.618 3.54-4.924 5.034-.096.477-.024 1.087.47 1.37l.788.395c.342.17.702.258 1.07.258 1.98 0 4.276-2.463 7.44-7.985 3.653-1.19 7.812-2.178 11.457-2.723 2.778 1.564 6.194 2.65 8.35 2.65.383 0 .713-.036.98-.107.415-.11.763-.345.976-.665.42-.63.504-1.497.39-2.385-.033-.264-.243-.59-.47-.812zM9.92 38.16c.362-.987 1.79-2.937 3.9-4.668.134-.108.46-.414.76-.7-2.208 3.522-3.687 4.926-4.66 5.366zm12.507-28.8c.636 0 .998 1.603 1.028 3.106s-.32 2.558-.757 3.338c-.36-1.155-.536-2.977-.536-4.167 0 0-.027-2.276.265-2.276zm-3.73 20.523c.442-.793.903-1.63 1.374-2.516a47.947 47.947 0 0 0 2.414-5.266c1.074 1.955 2.41 3.616 3.984 4.947.196.166.404.333.622.5-3.197.632-5.96 1.4-8.394 2.336zm20.158-.18c-.195.12-.752.19-1.11.19-1.16 0-2.592-.528-4.6-1.39.77-.057 1.478-.086 2.113-.086 1.162 0 1.506-.005 2.64.285s1.15.878.956 1z"/><path fill="#484848" d="M43.022 10.738c-1.04-1.42-2.493-3.08-4.086-4.674s-3.254-3.045-4.674-4.086C31.844.205 30.672 0 30 0H6.75A3.754 3.754 0 0 0 3 3.75v40.5A3.754 3.754 0 0 0 6.75 48h34.5A3.754 3.754 0 0 0 45 44.25V15c0-.672-.205-1.845-1.978-4.262zm-6.208-2.552c1.44 1.44 2.57 2.737 3.402 3.814H33V4.784c1.076.833 2.375 1.963 3.813 3.402zM42 44.25a.76.76 0 0 1-.75.75H6.75a.76.76 0 0 1-.75-.75V3.75A.76.76 0 0 1 6.75 3H30v10.5c0 .828.67 1.5 1.5 1.5H42v29.25z"/></svg>