<svg class="icon-lg icon-give v-icon" xmlns="http://www.w3.org/2000/svg" fill="currentcolor" viewBox="0 0 100 100"><path id="bread" d="M64.433 23.32l-.075-.043c-2.136 1.446-3.065 4.44-3.065 4.44.137-2.957 1.345-4.514 1.925-5.097l-4.038-1.81c-.022-.01-.434.28-.476.316-.272.233-.523.55-.78.81-.257.265-.505.545-.746.83-.538.64-1.05 1.31-1.546 1.992-.607.83-1.2 1.674-1.767 2.54.78-3.663 2.376-6.613 2.624-7.057-.03.05-.83-.19-.92-.2-.88-.18-1.77-.3-2.67-.4-.396-.04-.826-.14-1.22-.13-.27.01-.59.3-.82.45-.59.397-1.09 1.02-1.54 1.6-.53.685-.998 1.427-1.47 2.16a51.776 51.776 0 0 0-1.55 2.54c.186-2.855 1.565-5.59 2.18-6.68-.02.034-.334.004-.38.005-.14.003-.277.01-.416.015-.798.04-1.59.12-2.383.226-.51.07-1.015.147-1.52.23l-.853.15c-.27.05-.58.065-.84.178a.532.532 0 0 0-.14.107c-.176.17-.288.39-.425.6-.116.18-.23.355-.35.534l-1.08 1.656-1.086 1.664-.495.76c-.12-1.69.385-3.316.746-4.24-3.21.985-8.54 3.485-8.96 9.263.06 1.045.182 3.836 5.013 4.254 4.832.42 13.953-.42 21.442-.07 7.49.35 13.043.07 12.922-4.254-.12-4.325-5.255-7.323-5.255-7.323z"/><path id="cart" d="M50.353 23.65h11.07v-4.63h-11.07v4.63zm0 15.3h11.07V25.06h-11.07v13.89zm5.923-25.218c1.622 0 1.56 1.428 1.56 1.428 0 1.708-1.58 1.64-1.58 1.64H53.01s1.643-3.07 3.266-3.07zm-6.528 4.34h6.992s3.4.137 3.4-3.3c0 0 .134-2.874-3.36-2.874-3.494 0-7.032 6.174-7.032 6.174zM46.26 16.8h-3.247s-1.58.068-1.58-1.64c0 0-.062-1.43 1.56-1.43 1.624 0 3.268 3.07 3.268 3.07zm-3.77-4.902c-3.494 0-3.36 2.875-3.36 2.875 0 3.435 3.4 3.3 3.4 3.3h6.992s-3.538-6.175-7.032-6.175zm6.454 7.122H37.872v4.63h11.072v-4.63zm0 19.93H37.872V25.06h11.072v13.89z"/><path id="heart" d="M64.524 23.954c-1.34 2.605-3.647 4.987-5.805 6.996-2.087 2.01-7.37 6.4-9.6 8.186-1.12-.893-2.906-2.38-4.69-3.87-1.118-.967-2.234-1.934-3.2-2.753-.67-.595-1.267-1.116-1.714-1.563h-.074c-1.786-1.637-4.316-4.093-5.73-6.847-1.415-2.828-1.415-5.358 0-7.814 1.414-2.384 4.167-3.724 7.293-3.724 2.902 0 5.507 1.265 6.995 3.35l1.118 1.562 1.115-1.64c1.49-2.157 4.02-3.422 6.92-3.422.448 0 .894 0 1.34.074 1.49.223 2.83.744 3.87 1.488.82.595 1.564 1.34 2.085 2.233 1.562 2.457 1.562 4.987.074 7.74z"/><path id="hands" d="M32.27 90s5.78-21.415 5.717-24.66c-.065-3.24-2.432-4.905-2.432-4.905-6.784-3.84-8.703-5.717-11.946-9.514-3.246-3.795-4.184-9.77-5.72-11.516-1.535-1.75-.213-1.558-.213-1.558 2.196.15 3.84 2.624 4.052 2.752.212.13.767.256.767-.426 0-.9-.03-3.967 0-6.186.02-1.643.4-1.94.96-1.627.66.367 1.457 2.04 1.642 2.522.157.41.415.608.66.255.173-.25.806-.403 1.174.085.394.523.81 2.177.81 2.177s.805.01 1.067.32c.49.573.44 1.9.343 3.433-.192 3.053.553 4.6 1.194 6.36.575 1.577 1.92 1.812 1.855 1.492-.22-1.106-.405-6.25-.33-7.205.09-1.11.758-2.052 2.016-.9 1.092 1 .96 2.6 1.41 5.887.482 3.56 3.92 4.357 5.46 5.098 2.346 1.13 4.944 4.634 5.8 8.51.854 3.863-.51 29.61-.51 29.61H32.27zm35.46 0s-5.78-21.415-5.715-24.66c.063-3.24 2.43-4.905 2.43-4.905 6.784-3.84 8.705-5.717 11.947-9.514 3.243-3.795 4.18-9.77 5.717-11.516 1.533-1.75.21-1.558.21-1.558-2.197.15-3.84 2.624-4.053 2.752-.214.13-.768.256-.768-.426 0-.9.027-3.967 0-6.186-.023-1.643-.4-1.94-.963-1.627-.66.367-1.456 2.04-1.64 2.522-.16.41-.416.608-.662.255-.173-.25-.805-.403-1.173.085-.394.523-.81 2.177-.81 2.177s-.806.01-1.068.32c-.49.573-.437 1.9-.34 3.433.19 3.053-.555 4.6-1.195 6.36-.577 1.577-1.92 1.812-1.857 1.492.222-1.106.405-6.25.33-7.205-.087-1.11-.757-2.052-2.015-.9-1.093 1-.96 2.6-1.408 5.887-.486 3.56-3.922 4.357-5.46 5.098-2.347 1.13-4.947 4.634-5.803 8.51-.856 3.863.51 29.61.51 29.61h13.78z"/></svg>