<svg xmlns="http://www.w3.org/2000/svg" fill="currentcolor" class="tile-icon v-icon" viewBox="0 0 44.879002 48"><path d="M44.168 28.832l-9.166-2.688V16.31a.99.99 0 0 0-.71-.95l-10.863-3.186V5.52h3.258a.99.99 0 1 0 0-1.98h-3.26V.99a.99.99 0 1 0-1.98 0v2.55h-3.256a.99.99 0 1 0 0 1.98h3.257v6.607L10.585 15.36a.99.99 0 0 0-.708.95v9.795l-9.17 2.728a.992.992 0 0 0-.708.95V47.01c0 .547.442.99.99.99h14.638v-8.876c0-3.677 3.055-6.667 6.81-6.667 3.756 0 6.812 2.99 6.812 6.667V48h14.64a.99.99 0 0 0 .99-.99V29.78a.99.99 0 0 0-.712-.948zm-21.73-.82c-2.82 0-5.116-2.297-5.116-5.118s2.295-5.118 5.117-5.118 5.117 2.296 5.117 5.118-2.296 5.117-5.118 5.117z"/></svg>