<svg xmlns="http://www.w3.org/2000/svg" viewBox="0 0 32 32" class="v-icon"><path d="M5.336 0C4.648 0 4 .677 4 1.395v29.21C4 31.283 4.687 32 5.336 32h21.328c.648 0 1.336-.718 1.336-1.395V9l-9-9H5.336zm9.525 6.576l.309.01c.511-.022.836.384 1.002.767l.053.137a1.4 1.4 0 0 1 .08.332c.162 1.174-.45 4.647-.45 4.647-.029.129-.06.256-.097.4.282.773.649 1.51 1.082 2.182.432.671.93 1.276 1.472 1.783.404.377.918.691 1.417.978 1.113-.155 2.171-.234 3.05-.224 1.299.017 2.152.218 2.537.598.138.134.265.329.286.488.068.534.017 1.056-.235 1.435a1.007 1.007 0 0 1-.588.401 2.374 2.374 0 0 1-.59.064c-.648 0-1.486-.164-2.371-.445s-1.818-.68-2.654-1.15a44.554 44.554 0 0 0-6.893 1.638c-.951 1.662-1.773 2.863-2.505 3.649-.733.786-1.376 1.158-1.971 1.158-.222 0-.439-.054-.645-.156l-.474-.239c-.297-.169-.34-.537-.281-.824.092-.449.415-.956.923-1.476.51-.521 1.204-1.054 2.04-1.553a41.502 41.502 0 0 1 1.072-.582l.49-.26c.475-.812.997-1.771 1.574-2.9l.072-.139c.549-1.075 1.171-2.293 1.666-3.502l.178-.432c-.346-1.323-.616-2.497-.752-3.51-.136-1.012-.138-1.863.047-2.546.122-.436.586-.729 1.156-.729z" fill="#df1818"/><path d="M21 9l7 7V9z" fill-opacity=".2"/><path d="M19 0l8.992 9h-7.614C19.705 9 19 8.287 19 7.614z" fill="#fff" fill-opacity=".39"/></svg>