<svg xmlns="http://www.w3.org/2000/svg" viewBox="0 0 32 32" id="svg2" class="v-icon"><path d="M5.336 0C4.648 0 4 .677 4 1.395v29.21C4 31.283 4.688 32 5.336 32h21.328c.648 0 1.336-.717 1.336-1.394V9l-9-9H5.336zm1.797 11.59h3.312l1.72 9.457 2.292-9.457h3.17l1.97 9.457 1.518-6.727H19.8v-2.73h5.067l-3.853 15.22H18.03l-2.03-9-2.268 9h-3.236z" id="path4" fill="#3468ce"/><path d="M21 9l7 7V9z" id="path6" fill-opacity=".2"/><path d="M19 0l8.992 9H20.38C19.705 9 19 8.286 19 7.614z" id="path8" fill="#fff" fill-opacity=".39"/></svg>