<svg xmlns="http://www.w3.org/2000/svg" viewBox="0 0 32 32" id="svg2" class="v-icon"><path d="M5.336 0C4.648 0 4 .677 4 1.395v29.21C4 31.283 4.688 32 5.336 32h21.328c.648 0 1.336-.718 1.336-1.395V9l-9-9H5.336zm3.691 11.672h4.084L16 15.93l2.891-4.258h4.082l-4.895 7.318 5.524 8.137h-4.239L16 22.1l-1.514 2.263H16v2.764H8.398l5.524-8.137z" id="path4" fill="#207145"/><path d="M21 9l7 7V9z" id="path6" fill-opacity=".2"/><path d="M19 0l8.992 9h-7.614C19.705 9 19 8.287 19 7.614z" id="path8" fill="#fff" fill-opacity=".39"/></svg>